<svg width="2065.2" height="1223.8" version="1.2" viewBox="0 0 2065.2 1223.8" xmlns="http://www.w3.org/2000/svg">
 <title>2211</title>
 <defs>
  <linearGradient id="g1" x2="1" gradientTransform="matrix(0 -2143.2 242.59 0 -6759.9 5097)" gradientUnits="userSpaceOnUse">
   <stop stop-color="#fff" offset="0"/>
   <stop offset=".5"/>
  </linearGradient>
 </defs>
 <style>.s0 { fill: #39373c } 
		.s1 { fill: #ffffff } 
		.s2 { mix-blend-mode: screen;fill: url(#g1) }</style>
 <g transform="translate(-3097,-300)">
  <g>
   <g>
    <g>
     <g id="&lt;Group&gt;">
      <path class="s1" d="m3099.5 1523.8c-1.3 0-2.5-1.1-2.5-2.5v-1218.8c0-1.4 1.2-2.5 2.5-2.5 1.4 0 2.5 1.1 2.5 2.5v1218.8c0 1.4-1.1 2.5-2.5 2.5z"/>
      <path class="s1" d="m3146.6 325.8 0.2 586.1-0.1 586c0 1.2-1 2.2-2.2 2.2s-2.1-1-2.1-2.2l-0.3-586 0.2-586c0-1.3 0.9-2.2 2.1-2.2s2.2 0.9 2.2 2.1z"/>
      <path class="s1" d="m3191.2 349.2 0.4 562.6-0.2 562.7c0 1-0.8 1.8-1.9 1.8-1 0-1.8-0.8-1.8-1.8l-0.5-562.7 0.2-562.6c0-1 0.9-1.8 1.9-1.8 1.1 0 1.9 0.8 1.9 1.8z"/>
      <path class="s1" d="m3235.8 372.6 0.4 269.6 0.2 269.6v269.6l-0.3 269.6c0 0.9-0.7 1.6-1.6 1.6-0.8 0-1.5-0.7-1.5-1.6l-0.4-269.6-0.3-269.6 0.1-269.6 0.2-269.6c0-0.9 0.7-1.6 1.6-1.6s1.6 0.7 1.6 1.6z"/>
      <path class="s1" d="m3280.4 396 0.4 128.9 0.1 129 0.4 257.9-0.1 257.9-0.1 128.9-0.2 129c0 0.7-0.6 1.3-1.3 1.3-0.8 0-1.4-0.6-1.4-1.3l-0.3-129-0.2-128.9-0.3-257.9 0.1-257.9v-129l0.3-128.9c0-0.7 0.6-1.3 1.3-1.3s1.3 0.6 1.3 1.3z"/>
      <path class="s1" d="m3325.1 419.4 0.4 123.1 0.6 369.3-0.1 246.1-0.1 123.1-0.2 123.1c0 0.6-0.5 1.1-1.1 1.1s-1.1-0.5-1.1-1.1l-0.4-123.1-0.2-123.1-0.4-246.1 0.1-246.2v-123.1l0.3-123.1c0-0.6 0.5-1.1 1.1-1.1s1.1 0.5 1.1 1.1z"/>
      <path class="s1" d="m3369.8 442.8 0.4 117.2 0.2 117.2 0.5 234.5-0.1 234.5-0.1 117.3-0.3 117.2c0 0.5-0.4 0.9-0.8 0.9-0.5 0-0.9-0.4-0.9-0.9l-0.5-117.2-0.2-117.3-0.4-234.5 0.1-234.5v-117.2l0.3-117.2c0-0.5 0.4-0.9 0.9-0.9s0.9 0.4 0.9 0.9z"/>
      <path class="s1" d="m3414.5 466.1 0.5 111.4 0.2 111.4 0.5 222.8-0.1 222.8-0.1 111.4-0.2 111.4c0 0.3-0.4 0.6-0.7 0.6-0.4 0-0.7-0.3-0.7-0.6l-0.5-111.4-0.3-111.4-0.4-222.8v-222.8l0.1-111.4 0.3-111.4c0-0.3 0.3-0.7 0.7-0.7 0.3 0 0.7 0.4 0.7 0.7z"/>
      <path class="s1" d="m3459.2 489.5 0.5 105.5 0.3 105.6 0.5 211.1-0.1 211v105.6l-0.3 105.5c0 0.3-0.2 0.5-0.5 0.5s-0.5-0.2-0.6-0.5l-0.5-105.5-0.2-105.6-0.5-211v-316.6l0.3-105.6c0-0.3 0.3-0.5 0.6-0.5 0.2 0 0.5 0.2 0.5 0.5z"/>
      <path class="s1" d="m3503.9 512.9 0.6 99.7 0.2 99.7 0.6 199.3-0.1 199.4v99.7l-0.3 99.7c0 0.2-0.1 0.3-0.3 0.3s-0.4-0.1-0.4-0.3l-0.5-99.7-0.3-99.7-0.5-199.4v-299l0.3-99.7c0-0.2 0.1-0.4 0.3-0.4 0.3 0 0.4 0.2 0.4 0.4z"/>
      <path class="s1" d="m3548.7 536.3 0.5 93.8 0.3 93.8 0.6 187.7v281.5l-0.3 93.8c0 0.2-0.1 0.3-0.2 0.3-0.2 0-0.3-0.1-0.3-0.3l-0.5-93.8-0.3-93.8-0.6-187.7v-281.5l0.3-93.8c0-0.2 0.1-0.3 0.2-0.3 0.2 0 0.3 0.1 0.3 0.3z"/>
      <path class="s1" d="m3593.5 559.7 0.5 87.9 0.9 264v263.9l-0.2 88c0 0.1 0 0.1-0.1 0.1s-0.2 0-0.2-0.1l-0.5-88-0.3-88-0.6-175.9v-264l0.2-87.9c0-0.1 0-0.2 0.1-0.2s0.2 0.1 0.2 0.2z"/>
      <path class="s1" d="m3638.3 583 0.5 82.2 0.9 246.3 0.1 164.3v82.1l-0.2 82.2q-0.1 0-0.1 0l-0.5-82.2-0.3-82.1-0.6-164.3-0.1-164.2v-82.1l0.2-82.2q0.1 0 0.1 0z"/>
      <path class="s1" d="m3683.1 606.4 0.5 76.3 0.3 76.3 0.6 152.5 0.1 152.6 0.1 76.2-0.1 76.3-0.5-76.3-0.3-76.2-0.6-152.6-0.1-152.5-0.1-76.3z"/>
     </g>
     <path class="s1" d="m3100.7 300.3 582.4 306.1-584.7-301.7z"/>
     <path class="s1" d="m3100.5 435.6 582.8 238.6-584.7-234z"/>
     <path class="s1" d="m3100.2 570.9 583.2 171.1-584.6-166.3z"/>
     <path class="s1" d="m3100 706.3 583.6 103.5-584.5-98.6z"/>
     <path class="s1" d="m3099.7 841.7 584.1 35.9-584.4-30.9z"/>
     <path class="s1" d="m3099.4 977.1 584.5-31.7-584.2 36.7z"/>
     <path class="s1" d="m3099.1 1112.6 585-99.4-584.1 104.3z"/>
     <path class="s1" d="m3098.8 1248.1 585.5-167.1-584.1 171.9z"/>
     <path class="s1" d="m3098.6 1383.6 585.8-234.8-583.9 239.4z"/>
     <path class="s1" d="m3098.4 1519.1 586.2-302.5-583.9 307z"/>
     <path class="s1" d="m3512.6 1523.8c-1.3 0-2.5-1.1-2.5-2.5v-1218.8c0-1.4 1.2-2.5 2.5-2.5 1.4 0 2.5 1.1 2.5 2.5v1218.8c0 1.4-1.1 2.5-2.5 2.5z"/>
     <path class="s1" d="m3541.5 325.8 0.2 586.1-0.1 586c0 1.2-1 2.2-2.2 2.2s-2.2-1-2.2-2.2l-0.2-586 0.2-586c0-1.3 0.9-2.2 2.1-2.2s2.2 0.9 2.2 2.1z"/>
     <path class="s1" d="m3567.9 349.2 0.4 562.6-0.2 562.7c0 1-0.9 1.8-1.9 1.8s-1.9-0.8-1.9-1.8l-0.4-562.7 0.3-562.6c0-1 0.8-1.8 1.9-1.8 1 0 1.8 0.8 1.8 1.8z"/>
     <path class="s1" d="m3594.4 372.6 0.3 269.6 0.2 269.6-0.1 269.6-0.2 269.6c0 0.9-0.8 1.6-1.6 1.6-0.9 0-1.6-0.7-1.6-1.6l-0.4-269.6-0.2-269.6 0.1-269.6 0.3-269.6c0-0.9 0.7-1.6 1.6-1.6 0.8 0 1.6 0.7 1.6 1.6z"/>
     <path class="s1" d="m3620.8 396 0.3 128.9 0.2 129 0.2 257.9-0.1 257.9-0.1 128.9-0.2 129c0 0.7-0.6 1.3-1.4 1.3-0.7 0-1.3-0.6-1.3-1.3l-0.3-129-0.2-128.9-0.2-257.9 0.1-257.9 0.1-129 0.2-128.9c0-0.7 0.6-1.3 1.4-1.3 0.7 0 1.3 0.6 1.3 1.3z"/>
     <path class="s1" d="m3647.3 419.4 0.4 123.1 0.1 123.1 0.3 246.2-0.1 246.1-0.1 123.1-0.3 123.1c0 0.6-0.5 1.1-1.1 1.1s-1.1-0.5-1.1-1.1l-0.4-123.1-0.1-123.1-0.3-246.1 0.1-246.2 0.1-123.1 0.3-123.1c0-0.6 0.5-1.1 1.1-1.1s1.1 0.5 1.1 1.1z"/>
     <path class="s1" d="m3673.8 442.8 0.4 117.2 0.2 117.2 0.3 234.5-0.1 234.5-0.1 117.3-0.3 117.2c0 0.5-0.4 0.9-0.9 0.9s-0.9-0.4-0.9-0.9l-0.4-117.2-0.2-117.3-0.3-234.5 0.1-234.5 0.1-117.2 0.3-117.2c0-0.5 0.4-0.9 0.9-0.9s0.9 0.4 0.9 0.9z"/>
     <path class="s1" d="m3700.3 466.1 0.4 111.4 0.6 334.2-0.1 222.8-0.1 111.4-0.3 111.4c0 0.3-0.3 0.6-0.7 0.6s-0.7-0.3-0.7-0.6l-0.5-111.4-0.6-334.2 0.3-334.2 0.3-111.4c0-0.3 0.3-0.7 0.7-0.7s0.7 0.4 0.7 0.7z"/>
     <path class="s1" d="m3726.8 489.5 0.5 105.5 0.2 105.6 0.4 211.1-0.1 211-0.1 105.6-0.3 105.5c0 0.3-0.3 0.5-0.5 0.5-0.3 0-0.6-0.2-0.6-0.5l-0.4-105.5-0.3-105.6-0.4-211 0.2-211.1 0.1-105.6 0.3-105.5c0-0.3 0.2-0.5 0.5-0.5s0.5 0.2 0.5 0.5z"/>
     <path class="s1" d="m3753.4 512.9 0.5 99.7 0.2 99.7 0.4 199.3-0.1 199.4-0.1 99.7-0.3 99.7c0 0.2-0.2 0.3-0.4 0.3s-0.3-0.1-0.3-0.3l-0.5-99.7-0.3-99.7-0.4-199.4 0.1-199.3 0.1-99.7 0.3-99.7c0-0.2 0.2-0.4 0.4-0.4s0.4 0.2 0.4 0.4z"/>
     <path class="s1" d="m3780 536.3 0.5 93.8 0.2 93.8 0.4 187.7-0.1 187.7v93.8l-0.3 93.8c0 0.2-0.2 0.3-0.3 0.3s-0.2-0.1-0.2-0.3l-0.5-93.8-0.3-93.8-0.4-187.7 0.1-187.7 0.1-93.8 0.3-93.8c0-0.2 0.1-0.3 0.2-0.3 0.2 0 0.3 0.1 0.3 0.3z"/>
     <path class="s1" d="m3806.6 559.7 0.5 87.9 0.6 264v175.9l-0.1 88-0.3 88c0 0.1 0 0.1-0.1 0.1s-0.2 0-0.2-0.1l-0.4-88-0.3-88-0.4-175.9 0.1-176v-88l0.3-87.9c0-0.1 0.1-0.2 0.1-0.2 0.1 0 0.2 0.1 0.2 0.2z"/>
     <path class="s1" d="m3833.2 583 0.5 82.2 0.6 246.3v246.4l-0.3 82.2q-0.1 0-0.1 0l-0.5-82.2-0.2-82.1-0.4-164.3v-246.3l0.3-82.2z"/>
     <path class="s1" d="m3859.9 606.4 0.4 76.3 0.2 76.3 0.4 152.5v228.8l-0.2 76.3-0.4-76.3-0.2-76.2-0.4-152.6v-228.8z"/>
     <path class="s1" d="m3514.3 300.6 345.6 305.8-348.9-302z"/>
     <path class="s1" d="m3514 435.8 346 238.4-348.8-234.2z"/>
     <path class="s1" d="m3513.7 571.1 346.4 170.9-348.6-166.4z"/>
     <path class="s1" d="m3513.3 706.4 346.8 103.4-348.2-98.6z"/>
     <path class="s1" d="m3512.9 841.7 347.3 35.9-347.8-30.9z"/>
     <path class="s1" d="m3512.4 977.1 347.9-31.7-347.4 36.7z"/>
     <path class="s1" d="m3511.9 1112.6 348.5-99.4-347.1 104.2z"/>
     <path class="s1" d="m3511.5 1248.2 349-167.2-346.8 171.7z"/>
     <path class="s1" d="m3511.2 1383.8 349.4-235-346.6 239.2z"/>
     <path class="s1" d="m3511 1519.5 349.7-302.9-346.4 306.6z"/>
     <path class="s1" d="m3925.7 1523.8c-1.3 0-2.5-1.1-2.5-2.5v-1218.8c0-1.4 1.2-2.5 2.5-2.5 1.4 0 2.5 1.1 2.5 2.5v1218.8c0 1.4-1.1 2.5-2.5 2.5z"/>
     <path class="s1" d="m3936.4 325.8 0.2 586.1-0.1 586c0 1.2-1 2.2-2.2 2.2s-2.2-1-2.2-2.2l-0.2-586 0.2-586.1c0-1.2 1-2.1 2.2-2.1s2.1 0.9 2.1 2.1z"/>
     <path class="s1" d="m3944.7 349.2 0.3 562.6-0.3 562.7c0 1-0.8 1.8-1.9 1.8-1 0-1.8-0.8-1.8-1.8l-0.4-562.7 0.3-562.6c0-1 0.9-1.8 1.9-1.8s1.9 0.8 1.9 1.8z"/>
     <path class="s1" d="m3952.9 372.6 0.3 269.6 0.2 269.6-0.1 269.6-0.3 269.6c0 0.9-0.7 1.6-1.6 1.6s-1.6-0.7-1.6-1.6l-0.3-269.6-0.2-269.6 0.1-269.6 0.3-269.6c0-0.9 0.7-1.6 1.6-1.6s1.6 0.7 1.6 1.6z"/>
     <path class="s1" d="m3961.2 396 0.3 128.9 0.1 129 0.2 257.9-0.2 257.9-0.1 128.9-0.2 129c0 0.7-0.6 1.3-1.4 1.3-0.7 0-1.3-0.6-1.3-1.3l-0.3-129-0.1-128.9-0.2-257.9 0.1-257.9 0.1-129 0.3-128.9c0-0.7 0.6-1.3 1.3-1.3 0.8 0 1.4 0.6 1.4 1.3z"/>
     <path class="s1" d="m3969.5 419.4 0.3 123.1 0.2 123.1 0.2 246.2-0.2 246.1-0.1 123.1-0.3 123.1c0 0.6-0.5 1.1-1.1 1.1s-1.1-0.5-1.1-1.1l-0.4-123.1-0.1-123.1-0.3-246.1 0.2-246.2 0.2-123.1 0.3-123.1c0-0.6 0.5-1.1 1.1-1.1s1.1 0.5 1.1 1.1z"/>
     <path class="s1" d="m3977.8 442.8 0.4 117.2 0.1 117.2 0.3 234.5-0.2 234.5-0.1 117.3-0.4 117.2c0 0.5-0.4 0.9-0.9 0.9s-0.8-0.4-0.8-0.9l-0.4-117.2-0.2-117.3-0.3-234.5 0.3-234.5 0.1-117.2 0.3-117.2c0-0.5 0.4-0.9 0.9-0.9s0.9 0.4 0.9 0.9z"/>
     <path class="s1" d="m3986.1 466.1 0.4 111.4 0.2 111.4 0.3 222.8-0.2 222.8-0.2 111.4-0.3 111.4c0 0.3-0.3 0.6-0.7 0.6s-0.7-0.3-0.7-0.6l-0.4-111.4-0.2-111.4-0.3-222.8 0.2-222.8 0.2-111.4 0.3-111.4c0-0.4 0.4-0.7 0.7-0.7 0.4 0 0.7 0.4 0.7 0.7z"/>
     <path class="s1" d="m3994.5 489.5 0.4 105.5 0.2 105.6 0.3 211.1-0.2 211-0.2 105.6-0.3 105.5c0 0.3-0.3 0.5-0.6 0.5s-0.5-0.2-0.5-0.5l-0.4-105.5-0.2-105.6-0.3-211 0.2-211.1 0.2-105.6 0.3-105.5c0-0.3 0.3-0.5 0.6-0.5 0.2 0 0.5 0.2 0.5 0.5z"/>
     <path class="s1" d="m4002.9 512.9 0.4 99.7 0.2 99.7 0.3 199.3-0.2 199.4-0.2 99.7-0.3 99.7c0 0.2-0.2 0.3-0.4 0.3s-0.4-0.1-0.4-0.3l-0.4-99.7-0.2-99.7-0.3-199.4 0.2-199.3 0.1-99.7 0.4-99.7c0-0.2 0.2-0.4 0.4-0.4s0.4 0.2 0.4 0.4z"/>
     <path class="s1" d="m4011.3 536.3 0.4 93.8 0.2 93.8 0.3 187.7-0.2 187.7-0.1 93.8-0.4 93.8c0 0.2-0.1 0.3-0.3 0.3-0.1 0-0.2-0.1-0.2-0.3l-0.4-93.8-0.2-93.8-0.3-187.7 0.2-187.7 0.1-93.8 0.4-93.8c0-0.2 0.1-0.3 0.2-0.3 0.2 0 0.3 0.1 0.3 0.3z"/>
     <path class="s1" d="m4019.7 559.7 0.4 87.9 0.2 88 0.3 176-0.2 175.9-0.1 88-0.4 88c0 0.1 0 0.1-0.1 0.1s-0.2 0-0.2-0.1l-0.4-88-0.1-88-0.4-175.9 0.2-176 0.2-88 0.3-87.9c0-0.1 0.1-0.2 0.1-0.2 0.1 0 0.2 0.1 0.2 0.2z"/>
     <path class="s1" d="m4028.1 583 0.4 82.2 0.2 82.1 0.3 164.2-0.2 164.3-0.1 82.1-0.3 82.2t-0.1 0l-0.4-82.2-0.2-82.1-0.3-164.3 0.3-246.3 0.3-82.2z"/>
     <path class="s1" d="m4036.6 606.4 0.3 76.3 0.2 76.3 0.3 152.5-0.2 152.6v76.2l-0.3 76.3-0.4-76.3-0.1-76.2-0.3-152.6 0.2-152.5v-76.3z"/>
     <path class="s1" d="m3928.1 301.6 108.5 304.8-113.2-303.1z"/>
     <path class="s1" d="m3928 436.8 108.6 237.4-113.1-235.2z"/>
     <path class="s1" d="m3927.8 572 108.9 170-113.1-167.3z"/>
     <path class="s1" d="m3927.4 706.9 109.3 102.9-112.7-99.2z"/>
     <path class="s1" d="m3926.5 841.8 110.2 35.8-111.7-31z"/>
     <path class="s1" d="m3925 977.2 111.8-31.8-110.3 36.6z"/>
     <path class="s1" d="m3924 1113.2 112.8-100-109.4 103.7z"/>
     <path class="s1" d="m3923.6 1249.1 113.2-168.1-109 170.8z"/>
     <path class="s1" d="m3923.5 1384.8 113.4-236-108.9 238.2z"/>
     <path class="s1" d="m3923.4 1520.5 113.5-303.9-108.8 305.6z"/>
     <path class="s1" d="m5159.7 1523.8c-1.4 0-2.5-1.1-2.5-2.5v-1218.8c0-1.4 1.1-2.5 2.5-2.5 1.3 0 2.5 1.1 2.5 2.5v1218.8c0 1.4-1.2 2.5-2.5 2.5z"/>
     <path class="s1" d="m5116.9 325.9 0.2 586-0.3 586c0 1.2-0.9 2.2-2.2 2.2-1.2 0-2.1-1-2.1-2.2l-0.1-586 0.2-586.1c0-1.2 1-2.1 2.2-2.1s2.1 0.9 2.1 2.2z"/>
     <path class="s1" d="m5071.7 349.2 0.3 562.6-0.5 562.7c0 1-0.8 1.8-1.9 1.8-1 0-1.8-0.8-1.8-1.8l-0.3-562.7 0.5-562.6c0-1 0.8-1.8 1.9-1.8 1 0 1.8 0.8 1.8 1.8z"/>
     <path class="s1" d="m5026.6 372.6 0.2 269.6 0.1 269.6-0.3 269.6-0.4 269.6c0 0.9-0.7 1.6-1.6 1.6-0.8 0-1.6-0.7-1.6-1.6l-0.2-269.6-0.1-269.6 0.3-269.6 0.4-269.6c0-0.9 0.7-1.6 1.6-1.6s1.6 0.7 1.6 1.6z"/>
     <path class="s1" d="m4981.4 396 0.3 128.9v129l0.1 257.9-0.3 257.9-0.2 128.9-0.3 129c0 0.7-0.6 1.3-1.4 1.3-0.7 0-1.3-0.6-1.3-1.3l-0.2-129-0.1-128.9-0.1-257.9 0.4-257.9 0.1-129 0.4-128.9c0-0.7 0.6-1.3 1.3-1.3s1.3 0.6 1.3 1.3z"/>
     <path class="s1" d="m4936.3 419.4 0.3 123.1v123.1l0.1 246.2-0.4 246.1-0.2 123.1-0.4 123.1c0 0.6-0.5 1.1-1.1 1.1s-1.1-0.5-1.1-1.1l-0.2-123.1-0.1-123.1-0.1-246.1 0.6-369.3 0.4-123.1c0-0.6 0.5-1.1 1.1-1.1s1.1 0.5 1.1 1.1z"/>
     <path class="s1" d="m4891.2 442.8 0.3 117.2v117.2l0.1 234.5-0.4 234.5-0.2 117.3-0.5 117.2c0 0.5-0.4 0.9-0.9 0.9s-0.9-0.4-0.9-0.9l-0.2-117.2-0.1-117.3-0.1-234.5 0.5-234.5 0.2-117.2 0.4-117.2c0-0.5 0.4-0.9 0.9-0.9s0.9 0.4 0.9 0.9z"/>
     <path class="s1" d="m4846.1 466.1 0.3 111.4v111.4l0.1 222.8-0.4 222.8-0.3 111.4-0.5 111.4c0 0.3-0.3 0.6-0.7 0.6s-0.7-0.3-0.7-0.6l-0.3-111.4v-111.4l-0.1-222.8 0.5-222.8 0.2-111.4 0.5-111.4c0-0.4 0.3-0.7 0.7-0.7s0.7 0.4 0.7 0.7z"/>
     <path class="s1" d="m4801.1 489.5 0.2 105.6 0.1 105.5v211.1l-0.5 211-0.2 105.6-0.6 105.5c0 0.3-0.2 0.5-0.5 0.5s-0.5-0.2-0.5-0.5l-0.3-105.5v-105.6l-0.1-211 0.5-211.1 0.3-105.6 0.5-105.5c0-0.3 0.2-0.5 0.5-0.5s0.6 0.2 0.6 0.5z"/>
     <path class="s1" d="m4756 512.9 0.3 99.7v299l-0.5 199.4-0.3 99.7-0.5 99.7c0 0.2-0.2 0.3-0.4 0.3s-0.4-0.1-0.4-0.3l-0.2-99.7-0.1-99.7v-199.4l0.6-199.3 0.2-99.7 0.6-99.7c0-0.2 0.1-0.4 0.3-0.4 0.3 0 0.4 0.2 0.4 0.4z"/>
     <path class="s1" d="m4711 536.3 0.3 93.8v93.8l-0.1 187.7-0.5 187.7-0.3 93.8-0.5 93.8c0 0.2-0.2 0.3-0.3 0.3s-0.2-0.1-0.2-0.3l-0.3-93.8v-281.5l0.6-187.7 0.3-93.8 0.5-93.8c0-0.2 0.1-0.3 0.3-0.3 0.1 0 0.2 0.1 0.2 0.3z"/>
     <path class="s1" d="m4666 559.7 0.2 87.9v264l-0.6 175.9-0.3 88-0.6 88c0 0.1 0 0.1-0.1 0.1s-0.1 0-0.1-0.1l-0.3-88 0.1-88v-175.9l0.9-264 0.5-87.9c0-0.1 0.1-0.2 0.2-0.2 0 0 0.1 0.1 0.1 0.2z"/>
     <path class="s1" d="m4621 583 0.2 82.2v82.1l-0.1 164.2-0.6 164.3-0.3 82.1-0.5 82.2t-0.1 0-0.1 0l-0.1-82.2v-82.1l0.1-164.3 0.9-246.3 0.5-82.2z"/>
     <path class="s1" d="m4576.1 606.4 0.1 76.3-0.1 76.3-0.1 152.5-0.6 152.6-0.3 76.2-0.5 76.3-0.1-76.3v-76.2l0.2-152.6 0.6-152.5 0.3-76.3z"/>
     <path class="s1" d="m5160.8 304.7-584.7 301.7 582.4-306.1z"/>
     <path class="s1" d="m5160.6 440.2-584.7 234 582.8-238.6z"/>
     <path class="s1" d="m5160.3 575.7-584.5 166.3 583.2-171.1z"/>
     <path class="s1" d="m5160.1 711.2-584.5 98.6 583.6-103.5z"/>
     <path class="s1" d="m5159.8 846.7-584.4 30.9 584.1-35.9z"/>
     <path class="s1" d="m5159.5 982.1-584.2-36.7 584.5 31.7z"/>
     <path class="s1" d="m5159.2 1117.5-584.1-104.3 585 99.4z"/>
     <path class="s1" d="m5159 1252.9-584.1-171.9 585.4 167.1z"/>
     <path class="s1" d="m5158.7 1388.2-583.9-239.4 585.8 234.8z"/>
     <path class="s1" d="m5158.5 1523.5-583.9-306.9 586.2 302.5z"/>
     <path class="s1" d="m4746.6 1523.8c-1.4 0-2.5-1.1-2.5-2.5v-1218.8c0-1.4 1.1-2.5 2.5-2.5 1.3 0 2.5 1.1 2.5 2.5v1218.8c0 1.4-1.2 2.5-2.5 2.5z"/>
     <path class="s1" d="m4722 325.9 0.2 586-0.2 586c0 1.2-1 2.2-2.2 2.2s-2.2-1-2.2-2.2l-0.1-586 0.2-586.1c0-1.2 0.9-2.1 2.1-2.1s2.2 0.9 2.2 2.2z"/>
     <path class="s1" d="m4695 349.2 0.3 562.6-0.4 562.7c0 1-0.9 1.8-1.9 1.8s-1.9-0.8-1.9-1.8l-0.2-562.7 0.4-562.6c0-1 0.8-1.8 1.8-1.8 1.1 0 1.9 0.8 1.9 1.8z"/>
     <path class="s1" d="m4668 372.6 0.3 269.6 0.1 269.6-0.2 269.6-0.4 269.6c0 0.9-0.7 1.6-1.6 1.6s-1.6-0.7-1.6-1.6l-0.2-269.6-0.1-269.6 0.2-269.6 0.3-269.6c0-0.9 0.8-1.6 1.6-1.6 0.9 0 1.6 0.7 1.6 1.6z"/>
     <path class="s1" d="m4641.1 396 0.2 128.9 0.1 129 0.1 257.9-0.3 257.9-0.1 128.9-0.3 129c0 0.7-0.6 1.3-1.4 1.3-0.7 0-1.3-0.6-1.3-1.3l-0.2-129-0.1-128.9-0.1-257.9 0.2-257.9 0.2-129 0.3-128.9c0-0.7 0.6-1.3 1.3-1.3 0.8 0 1.4 0.6 1.4 1.3z"/>
     <path class="s1" d="m4614.1 419.4 0.3 123.1 0.1 123.1 0.1 246.2-0.3 246.1-0.2 123.1-0.3 123.1c0 0.6-0.5 1.1-1.1 1.1s-1.1-0.5-1.1-1.1l-0.3-123.1-0.1-123.1-0.1-246.1 0.3-246.2 0.1-123.1 0.4-123.1c0-0.6 0.5-1.1 1.1-1.1s1.1 0.5 1.1 1.1z"/>
     <path class="s1" d="m4587.2 442.8 0.3 117.2 0.1 117.2 0.1 234.5-0.3 234.5-0.2 117.3-0.4 117.2c0 0.5-0.4 0.9-0.9 0.9s-0.9-0.4-0.9-0.9l-0.3-117.2-0.1-117.3-0.1-234.5 0.3-234.5 0.2-117.2 0.4-117.2c0-0.5 0.4-0.9 0.9-0.9s0.9 0.4 0.9 0.9z"/>
     <path class="s1" d="m4560.3 466.1 0.3 111.4 0.1 111.4 0.1 222.8-0.3 222.8-0.2 111.4-0.5 111.4c0 0.3-0.3 0.6-0.7 0.6s-0.7-0.3-0.7-0.6l-0.3-111.4-0.1-111.4-0.1-222.8 0.3-222.8 0.2-111.4 0.5-111.4c0-0.4 0.3-0.7 0.7-0.7s0.7 0.4 0.7 0.7z"/>
     <path class="s1" d="m4533.4 489.5 0.3 105.5 0.1 105.6 0.2 211.1-0.5 211-0.2 105.6-0.4 105.5c0 0.3-0.3 0.5-0.6 0.5s-0.5-0.2-0.5-0.5l-0.3-105.5-0.1-105.6-0.1-211 0.4-211.1 0.2-105.6 0.5-105.5c0-0.3 0.2-0.5 0.5-0.5s0.5 0.2 0.5 0.5z"/>
     <path class="s1" d="m4506.5 512.9 0.4 99.7v99.7l0.2 199.3-0.5 199.4-0.2 99.7-0.5 99.7c0 0.2-0.1 0.3-0.3 0.3s-0.4-0.1-0.4-0.3l-0.3-99.7-0.1-99.7-0.1-199.4 0.4-199.3 0.2-99.7 0.5-99.7c0-0.2 0.2-0.4 0.4-0.4s0.3 0.2 0.3 0.4z"/>
     <path class="s1" d="m4479.7 536.3 0.3 93.8 0.1 93.8 0.1 187.7-0.5 187.7-0.2 93.8-0.5 93.8c0 0.2-0.1 0.3-0.2 0.3-0.2 0-0.3-0.1-0.3-0.3l-0.3-93.8v-93.8l-0.1-187.7 0.4-187.7 0.2-93.8 0.5-93.8c0-0.2 0.1-0.3 0.3-0.3 0.1 0 0.2 0.1 0.2 0.3z"/>
     <path class="s1" d="m4452.9 559.7 0.3 87.9v88l0.1 176-0.4 175.9-0.3 88-0.5 88c0 0.1 0 0.1-0.1 0.1s-0.1 0-0.1-0.1l-0.3-88-0.1-88v-175.9l0.6-264 0.5-87.9c0-0.1 0.1-0.2 0.2-0.2 0 0 0.1 0.1 0.1 0.2z"/>
     <path class="s1" d="m4426.1 583 0.3 82.2v246.3l-0.4 164.3-0.3 82.1-0.4 82.2t-0.1 0l-0.3-82.2v-246.4l0.6-246.3 0.5-82.2q0.1 0 0.1 0z"/>
     <path class="s1" d="m4399.3 606.4 0.2 76.3v228.8l-0.4 152.6-0.2 76.2-0.4 76.3-0.2-76.3v-228.8l0.4-152.5 0.2-76.3z"/>
     <path class="s1" d="m4748.2 304.4-348.9 302 345.6-305.8z"/>
     <path class="s1" d="m4748 440-348.8 234.2 345.9-238.4z"/>
     <path class="s1" d="m4747.6 575.6-348.5 166.4 346.4-170.9z"/>
     <path class="s1" d="m4747.3 711.2-348.3 98.6 346.9-103.4z"/>
     <path class="s1" d="m4746.8 846.7-347.9 30.9 347.4-35.9z"/>
     <path class="s1" d="m4746.3 982.1-347.5-36.7 348 31.7z"/>
     <path class="s1" d="m4745.9 1117.4-347.2-104.2 348.6 99.4z"/>
     <path class="s1" d="m4745.5 1252.7-346.9-171.7 349.1 167.2z"/>
     <path class="s1" d="m4745.1 1388-346.5-239.2 349.4 235z"/>
     <path class="s1" d="m4744.9 1523.2-346.4-306.6 349.7 302.9z"/>
     <path class="s1" d="m4333.5 1523.8c-1.4 0-2.5-1.1-2.5-2.5v-1218.8c0-1.4 1.1-2.5 2.5-2.5 1.3 0 2.5 1.1 2.5 2.5v1218.8c0 1.4-1.2 2.5-2.5 2.5z"/>
     <path class="s1" d="m4327.1 325.8 0.2 586.1-0.2 586c0 1.2-1 2.2-2.2 2.2s-2.2-1-2.2-2.2l-0.1-586 0.2-586.1c0-1.2 0.9-2.1 2.1-2.1s2.2 0.9 2.2 2.1z"/>
     <path class="s1" d="m4318.3 349.2 0.3 562.6-0.4 562.7c0 1-0.8 1.8-1.8 1.8-1.1 0-1.9-0.8-1.9-1.8l-0.3-562.7 0.3-562.6c0-1 0.9-1.8 1.9-1.8s1.9 0.8 1.9 1.8z"/>
     <path class="s1" d="m4309.5 372.6 0.3 269.6 0.1 269.6-0.2 269.6-0.3 269.6c0 0.9-0.7 1.6-1.6 1.6s-1.6-0.7-1.6-1.6l-0.3-269.6-0.1-269.6 0.1-269.6 0.4-269.6c0-0.9 0.7-1.6 1.6-1.6s1.6 0.7 1.6 1.6z"/>
     <path class="s1" d="m4300.7 396 0.3 128.9v129l0.2 257.9-0.2 257.9-0.1 128.9-0.3 129c0 0.7-0.6 1.3-1.3 1.3-0.8 0-1.4-0.6-1.4-1.3l-0.3-129v-128.9l-0.2-257.9 0.2-257.9 0.1-129 0.3-128.9c0-0.7 0.6-1.3 1.3-1.3 0.8 0 1.4 0.6 1.4 1.3z"/>
     <path class="s1" d="m4291.9 419.4 0.3 123.1 0.3 369.3-0.2 246.1-0.1 123.1-0.4 123.1c0 0.6-0.5 1.1-1.1 1.1s-1.1-0.5-1.1-1.1l-0.3-123.1-0.1-123.1-0.2-246.1 0.2-246.2 0.2-123.1 0.3-123.1c0-0.6 0.5-1.1 1.1-1.1s1.1 0.5 1.1 1.1z"/>
     <path class="s1" d="m4283.2 442.8 0.3 117.2 0.1 117.2 0.3 234.5-0.3 234.5-0.2 117.3-0.4 117.2c0 0.5-0.4 0.9-0.8 0.9-0.5 0-0.9-0.4-0.9-0.9l-0.4-117.2-0.1-117.3-0.2-234.5 0.3-234.5 0.1-117.2 0.4-117.2c0-0.5 0.4-0.9 0.9-0.9s0.9 0.4 0.9 0.9z"/>
     <path class="s1" d="m4274.4 466.1 0.4 111.4 0.1 111.4 0.3 222.8-0.3 222.8-0.2 111.4-0.4 111.4c0 0.3-0.3 0.6-0.7 0.6s-0.7-0.3-0.7-0.6l-0.4-111.4-0.3-334.2 0.3-222.8 0.2-111.4 0.4-111.4c0-0.4 0.3-0.7 0.7-0.7 0.3 0 0.6 0.4 0.6 0.7z"/>
     <path class="s1" d="m4265.7 489.5 0.4 105.5 0.2 105.6 0.2 211.1-0.3 211-0.2 105.6-0.4 105.5c0 0.3-0.3 0.5-0.5 0.5-0.3 0-0.6-0.2-0.6-0.5l-0.3-105.5-0.2-105.6-0.2-211 0.3-211.1 0.2-105.6 0.4-105.5c0-0.3 0.2-0.5 0.5-0.5s0.5 0.2 0.5 0.5z"/>
     <path class="s1" d="m4257.1 512.9 0.4 99.7 0.1 99.7 0.2 199.3-0.3 199.4-0.2 99.7-0.4 99.7c0 0.2-0.2 0.3-0.4 0.3s-0.4-0.1-0.4-0.3l-0.4-99.7-0.3-299.1 0.3-199.3 0.2-99.7 0.4-99.7c0-0.2 0.2-0.4 0.4-0.4s0.4 0.2 0.4 0.4z"/>
     <path class="s1" d="m4248.4 536.3 0.4 93.8 0.1 93.8 0.2 187.7-0.3 187.7-0.2 93.8-0.4 93.8c0 0.2-0.1 0.3-0.2 0.3-0.2 0-0.3-0.1-0.3-0.3l-0.4-93.8-0.1-93.8-0.2-187.7 0.3-187.7 0.2-93.8 0.4-93.8c0-0.2 0.1-0.3 0.3-0.3 0.1 0 0.2 0.1 0.2 0.3z"/>
     <path class="s1" d="m4239.8 559.7 0.3 87.9 0.3 264-0.3 175.9-0.1 88-0.5 88c0 0.1 0 0.1-0.1 0.1s-0.1 0-0.1-0.1l-0.4-88-0.1-88-0.2-175.9 0.3-176 0.2-88 0.4-87.9c0-0.1 0.1-0.2 0.1-0.2 0.1 0 0.2 0.1 0.2 0.2z"/>
     <path class="s1" d="m4231.2 583 0.3 82.2 0.3 246.3-0.3 164.3-0.2 82.1-0.4 82.2q-0.1 0-0.1 0l-0.3-82.2-0.1-82.1-0.2-164.3 0.3-164.2 0.2-82.1 0.4-82.2q0.1 0 0.1 0z"/>
     <path class="s1" d="m4222.6 606.4 0.3 76.3v76.3l0.2 152.5-0.3 152.6-0.2 76.2-0.3 76.3-0.3-76.3v-76.2l-0.2-152.6 0.3-152.5 0.1-76.3z"/>
     <path class="s1" d="m4335.8 303.3-113.2 303.1 108.5-304.8z"/>
     <path class="s1" d="m4335.7 439-113.1 235.2 108.6-237.4z"/>
     <path class="s1" d="m4335.5 574.7-113 167.3 108.9-170z"/>
     <path class="s1" d="m4335.1 710.6-112.6 99.2 109.3-102.9z"/>
     <path class="s1" d="m4334.2 846.6-111.7 31 110.2-35.8z"/>
     <path class="s1" d="m4332.7 982-110.3-36.6 111.8 31.8z"/>
     <path class="s1" d="m4331.8 1116.9-109.4-103.7 112.7 100z"/>
     <path class="s1" d="m4331.4 1251.8-109-170.8 113.1 168.1z"/>
     <path class="s1" d="m4331.2 1387-108.9-238.2 113.4 236z"/>
     <path class="s1" d="m4331.1 1522.2-108.8-305.6 113.5 303.9z"/>
    </g>
    <path class="s1" d="m4129.6 302.5 0.5 38.1 0.4 38 0.8 76.2c0.4 50.8 0.8 101.6 1 152.4 0.3 50.8 0.4 101.6 0.6 152.3l0.2 152.4-0.2 152.4c-0.2 50.7-0.3 101.5-0.6 152.3-0.2 50.8-0.6 101.6-1 152.4l-0.8 76.2-0.4 38-0.5 38.1-0.5-38.1-0.4-38-0.8-76.2c-0.4-50.8-0.8-101.6-1-152.4-0.4-50.8-0.4-101.6-0.6-152.3l-0.2-152.4 0.2-152.4c0.2-50.7 0.2-101.5 0.6-152.3 0.2-50.8 0.6-101.6 1-152.4l0.8-76.2 0.4-38z"/>
   </g>
  </g>
 </g>
</svg>
